<svg xmlns="http://www.w3.org/2000/svg" viewBox="0 0 300 300">
    <defs>
        <style>
            .cls-1 {
                fill: #f9cbcc;
            }
            .cls-1,
            .cls-2,
            .cls-3,
            .cls-7 {
                stroke: #1d1d1b;
            }
            .cls-1,
            .cls-2,
            .cls-3,
            .cls-5,
            .cls-7,
            .cls-8 {
                stroke-miterlimit: 10;
            }
            .cls-2,
            .cls-5,
            .cls-8 {
                fill: none;
            }
            .cls-3 {
                fill: #fff;
            }
            .cls-4 {
                fill: #1d1d1b;
            }
            .cls-5 {
                stroke: #f3e600;
                stroke-width: 2px;
            }
            .cls-7 {
                fill: #3ec0f0;
            }
            .cls-7:hover {
                fill: #ffccff;
            }
            .cls-8 {
                stroke: #fff;
                stroke-linecap: round;
                stroke-width: 0.75px;
            }
        </style>
    </defs>
    <g id="Capa_1" data-name="Capa 1">
        <path class="cls-1" d="M210,95.49c.42-.16,13.3-3.33,20.11,2.55a15.65,15.65,0,0,1,5.23,13.28c-.87,7.25-7.25,8.22-8.3,16.85-.4,3.31.33,4.87-1,7.79-.44.95-2.84,6.15-7.66,6.39-3.51.17-7-2.34-8.56-6.26" />
        <path class="cls-1" d="M86.74,95.49c-.42-.16-13.3-3.33-20.11,2.55a15.65,15.65,0,0,0-5.23,13.28c.87,7.25,7.25,8.22,8.3,16.85.4,3.31-.33,4.87,1,7.79.43.95,2.84,6.15,7.66,6.39,3.51.17,7-2.34,8.56-6.26" />
        <polyline class="cls-2" points="116.25 168.91 116.25 209.99 178.38 209.99 178.38 168.91" />
        <path class="cls-3" d="M220.92,104.55h0a75.85,75.85,0,1,0-147.18,0h0l0,.06A74.91,74.91,0,0,0,80,121.17l10,26.43a61.57,61.57,0,0,0,57.56,39.7h0a61.59,61.59,0,0,0,57.85-40.48l10-27.39a75.24,75.24,0,0,0,5.4-14.81Z" />
        <circle class="cls-4" cx="117.17" cy="95.9" r="5.17" />
        <circle class="cls-4" cx="177.47" cy="95.9" r="5.17" />
        <path class="cls-2" d="M99.09,86.14a25.57,25.57,0,0,1,36.15,0" />
        <path class="cls-2" d="M159.4,86.14a25.55,25.55,0,0,1,36.14,0" />
        <path class="cls-2" d="M164.39,146.22a24.15,24.15,0,0,1-34.14,0" />
        <path class="cls-2" d="M137.73,112.61V121a9.59,9.59,0,0,0,19.18,0v-8.39" />
        <path class="cls-2" d="M88.12,231.64a32.18,32.18,0,1,0,0,64.36" />
        <path class="cls-2" d="M206.52,296a32.18,32.18,0,0,0,0-64.36" />
        <circle class="cls-5" cx="63.45" cy="247.16" r="9.77" />
        <circle class="cls-5" cx="232.94" cy="247.16" r="9.77" />

        <rect class="cls-7" id="mascarilla" x="88.12" y="231.84" width="118.15" height="64.36" />

        <line class="cls-2" x1="126.81" y1="237.58" x2="167.57" y2="237.58" />
        <line class="cls-8" x1="96.4" y1="252.41" x2="196.57" y2="252.41" />
        <line class="cls-8" x1="96.4" y1="264.03" x2="196.57" y2="264.03" />
        <line class="cls-8" x1="96.4" y1="275.65" x2="196.57" y2="275.65" />
    </g>
</svg>
