<svg xmlns="http://www.w3.org/2000/svg" viewBox="0 0 300 300">
    <defs>
        <style>
            .cls-1,
            .cls-4,
            .cls-7,
            .cls-8 {
                fill: none;
            }
            .cls-1,
            .cls-3,
            .cls-6,
            .cls-7 {
                stroke: #1d1d1b;
            }
            .cls-1,
            .cls-3,
            .cls-4,
            .cls-6,
            .cls-7,
            .cls-8 {
                stroke-miterlimit: 10;
            }
            .cls-2 {
                fill: #1d1d1b;
            }
            .cls-3 {
                fill: #f9cbcc;
            }
            .cls-4 {
                stroke: #f3e600;
                stroke-width: 2px;
            }
            .cls-5 {
                fill: #f3e600;
            }
            .cls-6 {
                fill: #3ec0f0;
            }
            .cls-6:hover {
                fill: #ffccff;
            }
            .cls-7,
            .cls-8 {
                stroke-linecap: round;
            }
            .cls-8 {
                stroke: #fff;
                stroke-width: 0.75px;
            }
        </style>
    </defs>
    <g id="Capa_1" data-name="Capa 1">
        <path class="cls-1" d="M208,154.19a24,24,0,0,1-17.31-7.06" />
        <circle class="cls-2" cx="185.93" cy="97.19" r="5.17" />
        <path class="cls-1" d="M167.85,87.43a25.57,25.57,0,0,1,36.15,0" />
        <path
            class="cls-1"
            d="M221.12,116.34l-8.94-24.13c.06-1.25.09-2.5.09-3.76A75.48,75.48,0,1,0,90.19,147.81a14.43,14.43,0,0,1,5.57,11.36l0,52.1h72.11v-23a2,2,0,0,1,2.33-1.94c2.49.47,7.62,1,18.2,1,19.74,0,22.12-57,22.12-57C220.67,130.28,223.34,122.44,221.12,116.34Z"
        />
        <path class="cls-1" d="M155.42,92a32.18,32.18,0,1,0-19.59,61.3" />
        <path class="cls-3" d="M137,97.19c-.42-.15-15-5-21.81.85a15.65,15.65,0,0,0-5.23,13.28c.87,7.25,7.25,8.22,8.3,16.85.4,3.31-.33,4.87,1,7.79.43.95,2.83,6.15,7.66,6.39,3.5.17,7-2.34,8.55-6.26" />
        <path class="cls-1" d="M117.12,111.45c.45-3.79,2.95-6.87,6.13-7.66,4.8-1.21,9.53,3.19,10.47,7.4.85,3.81-1.28,8-3.83,10.22-1.89,1.63-3.81,2-3.83,3.32,0,1.54,2.6,2.18,3.32,5a5.77,5.77,0,0,1,.13,2" />
        <path class="cls-4" d="M125.35,83.69a15.14,15.14,0,0,1,19.31-4.43" />
        <polygon class="cls-5" points="136.16 84.46 135.98 82.47 126.16 83.35 126 73.49 123.99 73.53 124.2 85.54 136.16 84.46" />
        <path class="cls-4" d="M131.37,158.88a15.15,15.15,0,0,1-18.12-8" />
        <polygon class="cls-5" points="124.02 152.16 123.46 154.09 113.99 151.36 111.96 161.01 110 160.6 112.47 148.84 124.02 152.16" />
    </g>
    <g id="Capa_2" data-name="Capa 2">
        <path
            class="cls-6"
            id="mascarilla"
            d="M204.54,174.55l-68.71-21,19.59-61.3,34.45,16.92a3.06,3.06,0,0,0,1.39.33H219.6a1.64,1.64,0,0,1,1.56,1.15l4.65,15.29a3.82,3.82,0,0,1-1,3.89l-7.08,6.67-8.81,35.62A3.43,3.43,0,0,1,204.54,174.55Z"
        />
        <line class="cls-7" x1="203.23" y1="114.34" x2="221.85" y2="114.34" />
        <line class="cls-8" x1="157.04" y1="114.34" x2="218.51" y2="131.22" />
        <line class="cls-8" x1="153.51" y1="125.41" x2="213.92" y2="142.55" />
        <line class="cls-8" x1="149.97" y1="136.48" x2="211.01" y2="153.75" />
    </g>
</svg>
