<?xml version="1.0" encoding="utf-8"?>
<!-- Generator: Adobe Illustrator 25.2.1, SVG Export Plug-In . SVG Version: 6.00 Build 0)  -->
<svg version="1.1" xmlns="http://www.w3.org/2000/svg" xmlns:xlink="http://www.w3.org/1999/xlink" x="0px" y="0px" viewBox="0 0 300 300" style="enable-background: new 0 0 300 300;" xml:space="preserve">
    <style type="text/css">
        .st0 {
            fill: #f9cbcc;
            stroke: #000000;
            stroke-miterlimit: 10;
        }
        .st1 {
            fill: none;
            stroke: #000000;
            stroke-miterlimit: 10;
        }
        .st2 {
            fill: #ffffff;
            stroke: #000000;
            stroke-miterlimit: 10;
        }
        .st3 {
            fill: none;
            stroke: #f3e600;
            stroke-width: 2;
            stroke-miterlimit: 10;
        }
        .st4 {
            fill: #f3e600;
        }
        .st5 {
            fill: #f29699;
        }
        .st6 {
            fill: #3ec0f0;
            stroke: #000000;
            stroke-miterlimit: 10;
        }
        .st6:hover {
            fill:#ffccff;
            stroke: #000000;
            stroke-miterlimit: 10;
        }
        .st7 {
            fill: none;
            stroke: #ffffff;
            stroke-width: 0.75;
            stroke-linecap: round;
            stroke-miterlimit: 10;
        }
        .st8 {
            fill: none;
            stroke: #000000;
            stroke-linecap: round;
            stroke-miterlimit: 10;
        }
    </style>
    <g id="Capa_1">
        <path
            class="st0"
            d="M196.6,95.5c0.4-0.2,13.3-3.3,20.1,2.6c3.9,3.3,5.8,8.6,5.2,13.3c-0.9,7.3-7.3,8.2-8.3,16.9
		c-0.4,3.3,0.3,4.9-1,7.8c-0.4,0.9-2.8,6.1-7.7,6.4c-3.5,0.2-7-2.3-8.6-6.3"
        />
        <path
            class="st0"
            d="M73.3,95.5C72.9,95.3,60,92.2,53.2,98c-3.9,3.3-5.8,8.6-5.2,13.3c0.9,7.3,7.3,8.2,8.3,16.9
		c0.4,3.3-0.3,4.9,1,7.8c0.4,0.9,2.8,6.1,7.7,6.4c3.5,0.2,7-2.3,8.6-6.3"
        />
        <polyline class="st1" points="104.8,168.9 104.8,210 166.9,210 166.9,168.9 	" />
        <path
            class="st2"
            d="M209.4,104.6L209.4,104.6c1.5-5.9,2.2-12,2.2-18.4c0-41.9-34-75.8-75.8-75.8c-41.9,0-75.8,34-75.8,75.8
		c0,6.3,0.8,12.5,2.3,18.4h0l0,0.1c1.5,5.8,3.6,11.4,6.3,16.6l10,26.4c9.1,23.9,32,39.7,57.6,39.7h0c25.9,0,49-16.2,57.9-40.5
		l10-27.4C206.3,114.7,208.1,109.8,209.4,104.6L209.4,104.6z"
        />
        <circle cx="105.7" cy="95.9" r="5.2" />
        <circle cx="166" cy="95.9" r="5.2" />
        <path class="st1" d="M87.6,86.1c10-10,26.2-10,36.1,0" />
        <path class="st1" d="M147.9,86.1c10-10,26.2-10,36.1,0" />
        <path class="st1" d="M152.9,146.2c-9.4,9.4-24.7,9.4-34.1,0" />
        <path class="st1" d="M126.2,112.6v8.4c0,5.3,4.3,9.6,9.6,9.6c5.3,0,9.6-4.3,9.6-9.6v-8.4" />
        <g>
            <g>
                <line class="st3" x1="136.6" y1="107.9" x2="136.6" y2="92.7" />
                <g>
                    <polygon class="st4" points="144.8,99.3 143.3,100.7 136.6,93.4 129.9,100.7 128.5,99.3 136.6,90.5 				" />
                </g>
            </g>
        </g>
        <g>
            <g>
                <line class="st3" x1="136.6" y1="193.4" x2="136.6" y2="208.7" />
                <g>
                    <polygon class="st4" points="128.5,202.1 129.9,200.7 136.6,207.9 143.3,200.7 144.8,202.1 136.6,210.9 				" />
                </g>
            </g>
        </g>
        <path class="st1" d="M76.8,115.9c0,0-6-19.5-16.4-21.4" />
        <path class="st1" d="M196.4,115.9c0,0,0.7-20,14.6-20" />
    </g>
    <g id="Capa_2">
        <path
            class="st6"
            d="M172.9,179.2l-14.1,7.8c-13.7,7.6-30.4,7.4-43.9-0.6l-15.7-9.3c-12.9-7.7-21.1-21.4-21.6-36.4l-1-24.7l60-7
		l59.8,7l-1,26.2C194.9,157.7,186.3,171.7,172.9,179.2z"
        />
        <line class="st1" x1="115.3" y1="116.1" x2="156.1" y2="116.1" />
        <line class="st7" x1="160.4" y1="129.6" x2="185.1" y2="136" />
        <line class="st7" x1="160" y1="148.6" x2="185.1" y2="146.4" />
        <line class="st7" x1="160" y1="168" x2="185.1" y2="157.2" />
        <line class="st7" x1="114.9" y1="168" x2="90.3" y2="155.7" />
        <line class="st7" x1="115.3" y1="149" x2="90.3" y2="145.3" />
        <line class="st7" x1="115.3" y1="129.6" x2="90.3" y2="134.5" />
    </g>
</svg>
