<svg xmlns="http://www.w3.org/2000/svg" viewBox="0 0 300 300">
    <defs>
        <style>
            .cls-1,
            .cls-4,
            .cls-7,
            .cls-8 {
                fill: none;
            }
            .cls-1,
            .cls-3,
            .cls-6,
            .cls-7 {
                stroke: #1d1d1b;
            }
            .cls-1,
            .cls-3,
            .cls-4,
            .cls-6,
            .cls-7,
            .cls-8 {
                stroke-miterlimit: 10;
            }
            .cls-2 {
                fill: #1d1d1b;
            }
            .cls-3 {
                fill: #f9cbcc;
            }
            .cls-4 {
                stroke: #f3e600;
                stroke-width: 2px;
            }
            .cls-5 {
                fill: #f3e600;
            }
            .cls-6 {
                fill: #3ec0f0;
            }
            .cls-6:hover {
                fill: #ffccff;
            }
            .cls-7,
            .cls-8 {
                stroke-linecap: round;
            }
            .cls-8 {
                stroke: #fff;
                stroke-width: 0.75px;
            }
        </style>
    </defs>
    <g id="Capa_1" data-name="Capa 1">
        <path class="cls-1" d="M213.65,147.69a24,24,0,0,1-17.3-7.07" />
        <circle class="cls-2" cx="191.57" cy="90.69" r="5.17" />
        <path class="cls-1" d="M173.5,80.93a25.55,25.55,0,0,1,36.14,0" />
        <path class="cls-1" d="M226.77,109.84l-9-24.13c.06-1.25.1-2.5.1-3.77A75.48,75.48,0,1,0,95.84,141.31a14.45,14.45,0,0,1,5.57,11.35l0,52.11H173.5v-24H194c19.74,0,22.13-57,22.13-57C226.32,123.78,229,115.94,226.77,109.84Z" />
        <path class="cls-1" d="M162.27,86.75c-16.93-5.41-36.24,2.72-41.65,19.65a32.17,32.17,0,0,0,20.86,40.44" />
        <path class="cls-3" d="M144.93,92.42c-.43-.15-15.77-4.54-22.57,1.35a15.63,15.63,0,0,0-5.24,13.28c.87,7.25,7.25,8.22,8.3,16.85.4,3.31-.33,4.86,1,7.79.44.94,2.84,6.15,7.66,6.39,3.51.17,7-2.34,8.56-6.26" />
        <path class="cls-1" d="M124.33,107.17c.44-3.78,3-6.86,6.13-7.66,4.8-1.2,9.53,3.2,10.47,7.41.85,3.81-1.28,8-3.83,10.21-1.9,1.64-3.82,2-3.84,3.32,0,1.55,2.61,2.19,3.32,5a5.61,5.61,0,0,1,.13,2" />
        <path class="cls-4" d="M213.74,98.08a15.13,15.13,0,0,1,19.31-4.43" />
        <polygon class="cls-5" points="224.55 98.84 224.37 96.85 214.55 97.74 214.39 87.88 212.38 87.91 212.59 99.92 224.55 98.84" />
    </g>
    <g id="Capa_2" data-name="Capa 2">
        <path
            class="cls-6"
            d="M205,181.86l-27.13.8a3,3,0,0,1-2.2-.88l-33-33.47a3,3,0,0,1-.71-3L160,89a3,3,0,0,1,4.12-1.76l31.37,15.41a3.1,3.1,0,0,0,1.4.33h28.33a1.63,1.63,0,0,1,1.56,1.15l5.91,16.05a5.4,5.4,0,0,1-1.28,5.73l-7.27,7.18-14.13,45A5.42,5.42,0,0,1,205,181.86Z"
        />
        <line class="cls-7" x1="208.87" y1="107.65" x2="227.49" y2="107.65" />
        <line class="cls-8" x1="179.28" y1="154.93" x2="156.87" y2="135.85" />
        <line class="cls-8" x1="186.75" y1="135.09" x2="161.12" y2="121.96" />
        <line class="cls-8" x1="192.03" y1="116.74" x2="164.72" y2="111.16" />
    </g>
</svg>
